<?xml version="1.0" standalone="no"?><!DOCTYPE svg PUBLIC "-//W3C//DTD SVG 1.1//EN" "http://www.w3.org/Graphics/SVG/1.1/DTD/svg11.dtd"><svg t="1718346342948" class="icon" viewBox="0 0 1025 1024" version="1.1" xmlns="http://www.w3.org/2000/svg" p-id="7635" xmlns:xlink="http://www.w3.org/1999/xlink" width="16.015625" height="16"><path d="M852.903091 56.860206c59.134614 0 109.001015 43.839219 113.379251 101.324887L966.623503 166.600404v262.921593a56.860206 56.860206 0 0 1-113.32239 6.652644L852.903091 429.465136V170.580618H170.580618v625.462267h279.240472a56.860206 56.860206 0 0 1 56.519045 50.207562L506.624436 852.903091a56.860206 56.860206 0 0 1-50.207562 56.462185L449.76423 909.763297H170.580618c-59.134614 0-109.001015-43.839219-113.379251-101.324887L56.860206 800.023099V166.600404c0-58.793453 47.193971-105.305102 105.361962-109.399037L170.580618 56.860206h682.322473z" fill="currentColor" p-id="7636"></path><path d="M399.499808 357.536976v60.499259H314.323219v48.615476H394.041228v58.111131H314.323219v56.575905h88.417621v60.499259H247.455617v-284.30103h152.044191z m102.405231 0l43.156896 175.186295h0.739183V357.536976h62.546227l-0.05686 231.364178a106.101145 106.101145 0 0 0-59.134615 45.658746l-4.491956 7.278106h-9.666235L490.419277 466.25369h-0.739182v175.584316h-62.546227v-284.30103h74.771171z m188.377863 0l21.720598 173.423628a103.826736 103.826736 0 0 0-40.825628 51.970229l-1.194064 3.354752-6.368343-1.137204-43.441197-227.611405h70.108634z m125.774776 0l-30.022189 154.148018-12.111224 0.056861-7.164386 0.22744-5.913462 0.568603-6.652644 1.023483-9.779955 2.444989-9.381934 3.127311a118.951551 118.951551 0 0 0-11.1446 4.889978l21.038276-166.486683h71.132118zM818.161505 568.602061c22.289201 0 42.076552 13.419009 49.127218 33.32008l11.826923 33.433802 3.013591 1.364645c6.084042 2.84301 11.940643 6.084042 17.626664 9.552514l2.615569 1.705806 36.788554-7.050665a53.448594 53.448594 0 0 1 52.53883 19.33247l2.72929 4.037075 22.11862 36.04937a46.454788 46.454788 0 0 1-6.084042 56.632765l-24.96163 26.439996 0.284301 3.070451 0.284301 9.552515c0 3.184172-0.11372 6.368343-0.284301 9.552515l-0.284301 3.013591 24.90477 26.439995c13.646449 14.499353 16.830621 35.082747 8.472171 52.42511l-2.331269 4.264516-22.11862 36.049371a53.107432 53.107432 0 0 1-55.26812 23.312684l-36.788554-7.050666-2.615569 1.762667c-5.686021 3.468473-11.542622 6.652644-17.626664 9.552514l-3.013591 1.364645-11.826923 33.433802a51.344766 51.344766 0 0 1-44.407821 33.09264l-4.719397 0.22744h-44.23724a51.685927 51.685927 0 0 1-49.127218-33.32008l-11.883783-33.433802-2.956731-1.307784a193.15412 193.15412 0 0 1-17.626664-9.609375l-2.67243-1.705806-36.731693 7.050665a53.448594 53.448594 0 0 1-52.53883-19.33247l-2.72929-4.037074-22.11862-36.049371a46.454788 46.454788 0 0 1 6.084042-56.632765l24.90477-26.496856-0.227441-3.013591-0.284301-9.552515c0-3.184172 0.11372-6.368343 0.284301-9.552515l0.227441-3.070451-24.84791-26.383135a46.511649 46.511649 0 0 1-8.472171-52.42511l2.331269-4.264516 22.11862-36.04937a53.107432 53.107432 0 0 1 55.26812-23.312685l36.731693 6.993805 2.72929-1.705806c5.686021-3.468473 11.542622-6.709504 17.626664-9.609375l2.899871-1.307784 11.883783-33.433802a51.344766 51.344766 0 0 1 44.407821-33.092639l4.719397-0.227441zM796.042885 739.182679a56.860206 56.860206 0 1 0 0 113.720412 56.860206 56.860206 0 0 0 0-113.720412z" fill="currentColor" p-id="7637"></path></svg>