<?xml version="1.0" encoding="UTF-8"?>
<svg width="16px" height="16px" viewBox="0 0 16 16" version="1.1" xmlns="http://www.w3.org/2000/svg" xmlns:xlink="http://www.w3.org/1999/xlink">
    <title>格式化</title>
    <g id="页面-1" stroke="none" stroke-width="1" fill="none" fill-rule="evenodd">
        <g id="数据开发-数据加工点SQL-试运行" transform="translate(-1286.000000, -183.000000)">
            <g id="操作" transform="translate(1286.000000, 180.000000)">
                <g id="试运行备份-3" transform="translate(-0.000000, 3.000000)">
                    <polygon id="矩形" points="0 0 16 0 16 16 0 16"></polygon>
                    <path d="M15.5,0.5 L15.5,15.5 L0.5,15.5 L0.5,0.5 L15,0.5 Z" id="矩形" stroke="currentColor" fill="#FFFFFF"></path>
                    <path d="M6.09014414,13.5659611 L6.09014414,10.5340468 C6.07746647,10.2697996 5.83115766,10.0613342 5.5316184,10.0613342 C5.23207914,10.0613342 4.98577033,10.2697996 4.97309266,10.5340468 L4.97309266,13.5659611 C4.97309266,13.8381722 5.22183325,14.0593898 5.53011564,14.0613342 C5.84079345,14.0598741 6.09014414,13.8385151 6.09014414,13.5659611 Z" id="路径备份-5" fill="currentColor" transform="translate(5.531618, 12.061334) rotate(90.000000) translate(-5.531618, -12.061334) "></path>
                    <path d="M7.09014414,10.5659611 L7.09014414,5.53404683 C7.07746647,5.26979957 6.83115766,5.06133417 6.5316184,5.06133417 C6.23207914,5.06133417 5.98577033,5.26979957 5.97309266,5.53404683 L5.97309266,10.5659611 C5.97309266,10.8381722 6.22183325,11.0593898 6.53011564,11.0613342 C6.84079345,11.0598741 7.09014414,10.8385151 7.09014414,10.5659611 Z" id="路径备份-8" fill="currentColor" transform="translate(6.531618, 8.061334) rotate(90.000000) translate(-6.531618, -8.061334) "></path>
                    <path d="M8.59014414,8.06596108 L8.59014414,0.0340468295 C8.57746647,-0.230200429 8.33115766,-0.438665831 8.0316184,-0.438665831 C7.73207914,-0.438665831 7.48577033,-0.230200429 7.47309266,0.0340468295 L7.47309266,8.06596108 C7.47309266,8.3381722 7.72183325,8.5593898 8.03011564,8.56133417 C8.34079345,8.55987406 8.59014414,8.33851506 8.59014414,8.06596108 Z" id="路径备份-9" fill="currentColor" transform="translate(8.031618, 4.061334) rotate(90.000000) translate(-8.031618, -4.061334) "></path>
                    <path d="M9.59726213,10.4378013 L11.8955714,7.20513624 C12.2155896,6.75501762 12.8399089,6.64955042 13.2900275,6.96956866 C13.293412,6.9719749 13.2967814,6.97440219 13.3001357,6.97685041 L13.3929779,7.04461483 C13.8364069,7.36826826 13.9360055,7.98888535 13.6161176,8.43503833 L11.3123758,11.648105 C11.0036281,12.0787205 10.4125907,12.1937598 9.96487171,11.9103827 L9.87585355,11.85404 C9.41186773,11.560367 9.2738019,10.9461632 9.56747487,10.4821774 C9.57700452,10.4671211 9.58693719,10.4523237 9.59726213,10.4378013 Z" id="路径-15" stroke="currentColor"></path>
                    <line x1="10.5708166" y1="9.70350823" x2="11.8717658" y2="10.6849224" id="路径-16" stroke="currentColor"></line>
                </g>
            </g>
        </g>
    </g>
</svg>