<?xml version="1.0" encoding="UTF-8" standalone="no"?>
<!-- Created with Inkscape (http://www.inkscape.org/) -->

<svg
   width="37.041664mm"
   height="13.766012mm"
   viewBox="0 0 37.041664 13.766012"
   version="1.1"
   id="svg305"
   inkscape:version="1.2.2 (b0a84865, 2022-12-01)"
   sodipodi:docname="Icon.svg"
   xmlns:inkscape="http://www.inkscape.org/namespaces/inkscape"
   xmlns:sodipodi="http://sodipodi.sourceforge.net/DTD/sodipodi-0.dtd"
   xmlns:xlink="http://www.w3.org/1999/xlink"
   xmlns="http://www.w3.org/2000/svg"
   xmlns:svg="http://www.w3.org/2000/svg">
  <sodipodi:namedview
     id="namedview307"
     pagecolor="#ffffff"
     bordercolor="#000000"
     borderopacity="0.25"
     inkscape:showpageshadow="2"
     inkscape:pageopacity="0.0"
     inkscape:pagecheckerboard="0"
     inkscape:deskcolor="#d1d1d1"
     inkscape:document-units="mm"
     showgrid="false"
     inkscape:zoom="0.2102413"
     inkscape:cx="542.23409"
     inkscape:cy="199.77045"
     inkscape:window-width="1800"
     inkscape:window-height="1012"
     inkscape:window-x="0"
     inkscape:window-y="142"
     inkscape:window-maximized="1"
     inkscape:current-layer="layer1" />
  <defs
     id="defs302">
    <linearGradient
       inkscape:collect="always"
       xlink:href="#linearGradient3967"
       id="linearGradient3969"
       x1="-4.6322765"
       y1="22.947454"
       x2="130.36775"
       y2="22.947454"
       gradientUnits="userSpaceOnUse" />
    <linearGradient
       inkscape:collect="always"
       id="linearGradient3967">
      <stop
         style="stop-color:#e425fb;stop-opacity:1;"
         offset="0"
         id="stop3963" />
      <stop
         style="stop-color:#23e9f5;stop-opacity:0.97175139;"
         offset="1"
         id="stop3965" />
    </linearGradient>
    <linearGradient
       inkscape:collect="always"
       xlink:href="#linearGradient3967"
       id="linearGradient476"
       gradientUnits="userSpaceOnUse"
       x1="-4.6322765"
       y1="22.947454"
       x2="130.36775"
       y2="22.947454" />
    <linearGradient
       inkscape:collect="always"
       xlink:href="#linearGradient3967"
       id="linearGradient478"
       gradientUnits="userSpaceOnUse"
       x1="-4.6322765"
       y1="22.947454"
       x2="130.36775"
       y2="22.947454" />
  </defs>
  <g
     inkscape:label="图层 1"
     inkscape:groupmode="layer"
     id="layer1"
     transform="translate(38.656425,307.65842)">
    <g
       id="g2359"
       transform="matrix(0.27438265,0,0,0.27438265,-37.385409,-307.0718)"
       style="fill:url(#linearGradient3969);fill-opacity:1">
      <g
         id="g2357"
         style="fill:url(#linearGradient478);fill-opacity:1">
        <path
           d="M 8.6012929,27.059549 H -4.5552067 q -0.07707,0 -0.07707,-0.07707 v 0 -19.0356386 q 0,-0.06606 0.07707,-0.06606 v 0 H 8.6012929 q 1.9376941,0 3.6882241,0.7486551 1.76154,0.7486542 3.082695,2.0367805 1.321154,1.288126 2.069808,3.049665 0.759664,1.750531 0.759664,3.754282 v 0 q 0,2.356059 -1.078943,4.403849 -1.067932,2.03678 -3.005626,3.390964 v 0 q -2.510195,1.79457 -5.5158221,1.79457 z M 53.124209,-2.1379724 h 0.06606 q 5.152503,0 9.732507,1.9707225 4.580003,1.9597129 7.981976,5.3616865 3.401973,3.4019737 5.361687,7.9819764 1.970722,4.580004 1.970722,9.732508 v 0 q 0,5.22957 -1.970722,9.765535 -1.959714,4.546975 -5.361687,7.981977 -3.401973,3.435003 -7.981976,5.405726 -4.580004,1.970721 -9.732507,1.970721 v 0 h -0.06606 -24.980835 v 0 H -4.5552067 q -0.07707,0 -0.07707,-0.07707 v 0 -10.954574 q 0,-0.06606 0.07707,-0.06606 v 0 H 8.6012929 q 0.5064435,0 0.9358182,0 v 0 q 5.3726969,-0.286251 9.7985639,-3.22582 v 0 q 4.161638,-2.719377 6.451639,-7.00212 2.290003,-4.304763 2.290003,-9.237074 v 0 q 0,-4.07356 -1.541347,-7.6186597 Q 24.994622,6.3064086 22.341303,3.664099 19.698993,1.0107798 16.153895,-0.5305675 12.608796,-2.0719147 8.6012929,-2.0719147 v 0 q -0.06606,0 -0.06606,0 v 0 q 2.7e-6,-0.066057 0.06606,-0.066057 v 0 H 28.143374 v 0 z m 0.06606,39.9979614 v 0 q 3.082694,0 5.802071,-1.17803 2.719377,-1.17803 4.756157,-3.181781 2.03678,-2.003752 3.21481,-4.723129 1.189039,-2.719376 1.189039,-5.868128 v 0 q 0,-3.082695 -1.189039,-5.802072 -1.17803,-2.708367 -3.21481,-4.756157 -2.03678,-2.03678 -4.756157,-3.21481 -2.719377,-1.1890395 -5.802071,-1.1890395 v 0 q -3.148753,0 -5.86813,1.1890395 -2.719376,1.17803 -4.756157,3.21481 -2.03678,2.04779 -3.22582,4.756157 -1.178029,2.719377 -1.178029,5.802072 v 0 q 0,3.148752 1.178029,5.868128 1.18904,2.719377 3.22582,4.723129 2.036781,2.003751 4.756157,3.181781 2.719377,1.17803 5.86813,1.17803 z M 112.58719,48.03288 v 0 q -4.8002,0 -9.41323,-1.827597 -4.613035,-1.827597 -8.257226,-5.54885 v 0 q -3.578121,-3.578127 -5.482791,-8.125102 -1.893654,-4.546974 -1.893654,-9.62241 v 0 q 0,-5.009379 1.893654,-9.556353 1.90467,-4.5359655 5.482791,-8.1140929 v 0 q 3.644191,-3.7322622 8.257226,-5.5488501 4.61303,-1.8275974 9.44626,-1.8275974 4.83322,0 9.44625,1.8275974 4.62405,1.8165879 8.26823,5.5488501 v 0 q 0.0661,0 0,0.066058 v 0 l -7.0902,7.0901969 q 0,0 -0.0661,0 v 0 q -2.14688,-2.223944 -4.89929,-3.3359161 -2.7524,-1.1119716 -5.65894,-1.1119716 -2.89554,0 -5.64794,1.1119716 -2.76342,1.1119721 -4.89928,3.3359161 v 0 q -2.146882,2.069809 -3.302896,4.789186 -1.133991,2.719377 -1.133991,5.725005 v 0 q 0,3.005627 1.133991,5.725004 1.156014,2.719377 3.302896,4.866253 v 0 q 2.13586,2.212935 4.89928,3.291877 2.7524,1.067934 5.64794,1.067934 2.90654,0 5.65894,-1.067934 2.75241,-1.078942 4.89929,-3.291877 v 0 q 0.0661,0 0.0661,0 v 0 l 7.0902,7.079188 q 0.0661,0.07707 0,0.07707 v 0 q -3.64418,3.721253 -8.26823,5.54885 -4.61303,1.827597 -9.47928,1.827597 z"
           id="path2355"
           style="fill:url(#linearGradient476);fill-opacity:1;stroke-width:1.10096" />
      </g>
    </g>
  </g>
</svg>
