<svg data-v-0dd9719b="" version="1.0" xmlns="http://www.w3.org/2000/svg" xmlns:xlink="http://www.w3.org/1999/xlink" width="100%" height="100%" viewBox="0 0 60 66.40399932861328" preserveAspectRatio="xMidYMid meet" color-interpolation-filters="sRGB" style="margin: auto;"> <rect data-v-0dd9719b="" x="0" y="0" width="100%" height="100%" fill="#fff" fill-opacity="1" class="background" style="display: none;"></rect> <rect data-v-0dd9719b="" x="0" y="0" width="100%" height="100%" fill="url(#watermark)" fill-opacity="1" class="watermarklayer" style="display: none;"></rect> <g data-v-0dd9719b="" class="imagesvg isNoFont"><g><rect fill="#0051eb" fill-opacity="0" stroke-width="2" x="0" y="0" width="60.00000000000001" height="66.40400194785073" class="image-rect"></rect> <svg x="0" y="0" width="60.00000000000001" height="66.40400194785073" filtersec="colorsb3818275386" class="image-svg-svg primary" style="overflow: visible;"><svg xmlns="http://www.w3.org/2000/svg" viewBox="-0.0006022453308105469 -0.0013154149055480957 190.17332458496094 210.47129821777344"><title>资源 69</title><g><path d="M.39 56.16c0-11.2-.13-22.4 0-33.6C.61 9.36 9.31.37 22.5.3 56.11.11 89.73-.31 123.32.38c37.68.78 67.18 32.53 66.85 70.69-.31 36.75-30.7 67.5-67.66 68.45-16.43.43-16.43.42-16.43 17.06 0 10.16.1 20.32 0 30.47-.21 14.65-8.88 23.29-23.46 23.36q-29.7.12-59.4 0C9 210.3.29 201.59.19 187.46c-.12-15.1-.07-30.21 0-45.32.09-15.59 8-23.73 23.52-23.85 17.71-.13 35.44-.3 53.14.14 6.4.15 8.09-2 7.74-8-.46-7.79-.29-15.63-.06-23.44.14-4.46-1.65-5.9-6-5.87-16.93.15-33.87.19-50.8 0-4.9 0-6.18 2-6.26 6.52-.06 3.29 2.31 8.49-2.26 9.59A37.07 37.07 0 0 1 1.5 97C-.64 96.43.14 93.32.13 91.32V56.16zM75.65 21c-15.63 0-31.26.22-46.88-.12-5.89-.12-7.82 1.87-7.53 7.66.41 8.05.38 16.15 0 24.21-.24 5.44 1.62 7.25 7.12 7.17 18-.28 35.94-.19 53.91-.08 15 .1 23.57 8.74 23.79 23.87.11 7.29-.07 14.59 0 21.88.22 14.34-2.27 12.74 12.94 12.65 28.84-.16 50.25-21.08 50.12-48.69-.12-27.42-21.78-48.31-50.5-48.55-14.33-.07-28.62 0-42.97 0zM52.46 189c8.85 0 17.71-.1 26.56.05 4 .07 5.58-1.36 5.53-5.44q-.24-19.53 0-39.06c0-3.69-1.37-5-5-5q-26.56.18-53.12 0c-3.87 0-4.87 1.84-4.84 5.3.1 12.75.16 25.51 0 38.27-.06 4.34 1.56 6.06 5.93 6 8.27-.22 16.61-.12 24.94-.12z" fill="#0051eb"></path></g></svg></svg> <!----></g></g><defs v-gra="od"></defs></svg>