<?xml version="1.0" encoding="UTF-8" standalone="no"?>
<svg
   data-v-0dd9719b=""
   version="1.0"
   width="177.25999"
   height="20.169258"
   viewBox="0 0 177.25999 20.169258"
   preserveAspectRatio="xMidYMid"
   color-interpolation-filters="sRGB"
   id="svg48"
   sodipodi:docname="Logo.svg"
   inkscape:version="1.2.2 (b0a84865, 2022-12-01)"
   xmlns:inkscape="http://www.inkscape.org/namespaces/inkscape"
   xmlns:sodipodi="http://sodipodi.sourceforge.net/DTD/sodipodi-0.dtd"
   xmlns:xlink="http://www.w3.org/1999/xlink"
   xmlns="http://www.w3.org/2000/svg"
   xmlns:svg="http://www.w3.org/2000/svg">
  <sodipodi:namedview
     id="namedview50"
     pagecolor="#ffffff"
     bordercolor="#000000"
     borderopacity="0.25"
     inkscape:showpageshadow="2"
     inkscape:pageopacity="0.0"
     inkscape:pagecheckerboard="0"
     inkscape:deskcolor="#d1d1d1"
     showgrid="false"
     inkscape:zoom="7.6259191"
     inkscape:cx="51.665903"
     inkscape:cy="22.620224"
     inkscape:window-width="1800"
     inkscape:window-height="1019"
     inkscape:window-x="0"
     inkscape:window-y="44"
     inkscape:window-maximized="1"
     inkscape:current-layer="g44" />
  <g
     data-v-0dd9719b=""
     fill="#0051eb"
     class="icon-text-wrapper icon-svg-group iconsvg"
     transform="translate(-67,-21.905557)"
     id="g44">
    <g
       transform="translate(67,14.708874)"
       id="g42">
      <g
         data-gra="path-name"
         fill-rule=""
         class="tp-name iconsvg-namesvg"
         transform="translate(0,7.1966834)"
         opacity="0.640166"
         id="g28"
         style="fill:url(#linearGradient5405);fill-opacity:1">
        <g
           id="g26"
           style="fill:url(#linearGradient5567);fill-opacity:1">
          <g
             id="g24"
             style="fill:url(#linearGradient5565);fill-opacity:1">
            <path
               d="m 2.68,-20.22 h 20.16 l -1.23,9.91 c -0.173333,0.6266667 -0.513333,1.1466667 -1.02,1.56 -0.506667,0.4066667 -0.996667,0.61 -1.47,0.61 v 0 H 8.27 L 7.5252158,-2.3668645 8.0564486,-1.9307428 7.33,-1.94 H 1.45 l 2.17,-17.38 z m 13.67,3.1 H 9.53 l -0.65,5.88 h 6.947605 z m 11.46,-3.1 h 17.38 c 0.306667,0 0.586667,0.05333 0.84,0.16 0.26,0.106667 0.483333,0.256667 0.67,0.45 0.18,0.193333 0.303333,0.42 0.37,0.68 0.06,0.26 0.05,0.55 -0.03,0.87 v 0 L 44.87,-1.94 H 27.49 c -0.3,0 -0.58,-0.053333 -0.84,-0.16 -0.26,-0.1066667 -0.48,-0.2566667 -0.66,-0.45 -0.186667,-0.1933333 -0.31,-0.4266667 -0.37,-0.7 -0.06667,-0.2666667 -0.05667,-0.55 0.03,-0.85 v 0 z m 13.02,3.1 H 33.4 l -1.55,12.08 h 7.14 z m 11.08,15.18 v 0 c -0.3,0 -0.58,-0.053333 -0.84,-0.16 -0.253333,-0.1066667 -0.473333,-0.2566667 -0.66,-0.45 -0.18,-0.1933333 -0.303333,-0.4266667 -0.37,-0.7 -0.06667,-0.2666667 -0.05667,-0.55 0.03,-0.85 v 0 l 2.17,-16.12 h 19.54 l -0.32,3.1 H 57.82 l -1.55,12.08 h 12.09 l 1.55,-1.23 -0.62,4.33 z m 23.84,-18.28 h 20.81 l -0.94,7.43 -1.87,1.23 1.55,1.25 -0.94,6.21 c -0.153333,0.62 -0.443333,1.1366667 -0.87,1.55 -0.433333,0.4066667 -0.96,0.61 -1.58,0.61 v 0 H 74.53 l 2.16,-17.05 z m 14.28,3.1 H 82.6 l -0.32,4 h 7.14 z m -0.93,7.11 h -7.43 l -0.62,4.97 h 7.43 z m 27.87,-5.56 -1.22,8.04 h -9.92 l -0.32,2.49 h 8.69 l 1.55,-1.23 -0.94,4.33 h -13.63 c -0.62667,0 -1.09667,-0.2033333 -1.41,-0.61 C 99.456667,-2.9633333 99.3,-3.48 99.3,-4.1 v 0 l 1.55,-11.47 z m -6.49,3.1 h -3.75 l -0.29,1.84 h 3.72 z m 10.02,-3.1 h 17.05 l -1.6498,12.9808944 0.79387,0.6562584 L 135.68,-1.94 h -6.2 l 1.55,-10.53 h -3.72 l -1.55,10.53 h -6.2 l 1.87,-12.73 z m 37.63,0 -0.32,3.1 h -9.92 l -1.23,7.43 h 8.66 l 1.55,-1.23 -0.61,4.33 h -16.12 l 2.16,-13.63 z m 4.75,-6.53 h 6.81 l -0.9,6.53 h 9.92 l -1.40235,12.6882507 1.2739,0.9420637 L 176.83,-1.94 h -6.2 l 1.55,-10.53 h -3.71 l -1.55,10.53 h -6.21 l 2.78,-19.22 z"
               transform="translate(-1.45,22.1)"
               id="path22"
               style="fill:url(#linearGradient5563);fill-opacity:1"
               sodipodi:nodetypes="ccccsccccccccccccccscccsccssccsccccccccscccscccccccccccccccccscccccccccccccccccccccscscccccccccccccccccccccccccccccccccccccccccccc" />
          </g>
          <!---->
          <!---->
          <!---->
          <!---->
          <!---->
          <!---->
          <!---->
        </g>
      </g>
    </g>
  </g>
  <defs
     v-gra="od"
     id="defs46">
    <linearGradient
       inkscape:collect="always"
       id="linearGradient5399">
      <stop
         style="stop-color:#000dfd;stop-opacity:1;"
         offset="0"
         id="stop5395" />
      <stop
         style="stop-color:#810388;stop-opacity:0.96402878;"
         offset="1"
         id="stop5397" />
    </linearGradient>
    <linearGradient
       id="linearGradient5383"
       inkscape:swatch="solid">
      <stop
         style="stop-color:#1004c6;stop-opacity:0.89830506;"
         offset="0"
         id="stop5381" />
    </linearGradient>
    <linearGradient
       inkscape:collect="always"
       xlink:href="#linearGradient5399"
       id="linearGradient5405"
       x1="0"
       y1="10.084629"
       x2="177.25999"
       y2="10.084629"
       gradientUnits="userSpaceOnUse" />
    <linearGradient
       inkscape:collect="always"
       xlink:href="#linearGradient5399"
       id="linearGradient5563"
       gradientUnits="userSpaceOnUse"
       x1="0"
       y1="10.084629"
       x2="177.25999"
       y2="10.084629" />
    <linearGradient
       inkscape:collect="always"
       xlink:href="#linearGradient5399"
       id="linearGradient5565"
       gradientUnits="userSpaceOnUse"
       x1="0"
       y1="10.084629"
       x2="177.25999"
       y2="10.084629" />
    <linearGradient
       inkscape:collect="always"
       xlink:href="#linearGradient5399"
       id="linearGradient5567"
       gradientUnits="userSpaceOnUse"
       x1="0"
       y1="10.084629"
       x2="177.25999"
       y2="10.084629" />
  </defs>
</svg>
