<?xml version="1.0" encoding="UTF-8" standalone="no"?>
<svg
   data-v-0dd9719b=""
   version="1.0"
   width="180"
   height="66.599998"
   viewBox="0 0 180 66.599998"
   preserveAspectRatio="xMidYMid"
   color-interpolation-filters="sRGB"
   id="svg2347"
   sodipodi:docname="logo.svg"
   inkscape:version="1.2.2 (b0a84865, 2022-12-01)"
   xmlns:inkscape="http://www.inkscape.org/namespaces/inkscape"
   xmlns:sodipodi="http://sodipodi.sourceforge.net/DTD/sodipodi-0.dtd"
   xmlns="http://www.w3.org/2000/svg"
   xmlns:svg="http://www.w3.org/2000/svg">
  <sodipodi:namedview
     id="namedview2349"
     pagecolor="#ffffff"
     bordercolor="#000000"
     borderopacity="0.25"
     inkscape:showpageshadow="2"
     inkscape:pageopacity="0.0"
     inkscape:pagecheckerboard="0"
     inkscape:deskcolor="#d1d1d1"
     showgrid="false"
     inkscape:zoom="5.3005004"
     inkscape:cx="97.915284"
     inkscape:cy="64.899533"
     inkscape:window-width="1800"
     inkscape:window-height="1012"
     inkscape:window-x="0"
     inkscape:window-y="142"
     inkscape:window-maximized="1"
     inkscape:current-layer="svg2347" />
  <g
     data-v-0dd9719b=""
     fill="#1d0a5b"
     class="icon-text-wrapper icon-svg-group iconsvg"
     transform="matrix(0.73713091,0,0,0.73713091,0,1)"
     id="g2343">
    <g
       class="iconsvg-imagesvg"
       opacity="1"
       id="g2323"
       transform="translate(0,12.2095)">
      <g
         id="g2321">
        <rect
           fill="#1d0a5b"
           fill-opacity="0"
           stroke-width="2"
           x="0"
           y="0"
           width="60"
           height="60"
           class="image-rect"
           id="rect2284" />
        <svg
           filter="url(#colors7263881097)"
           x="0"
           y="0"
           width="60"
           height="60"
           filtersec="colorsf1165146909"
           class="image-svg-svg primary"
           style="overflow:visible"
           version="1.1"
           id="svg2308">
          <svg
             version="1.1"
             x="0px"
             y="0px"
             viewBox="7.6489983 5.6489983 84.701004 84.701004"
             enable-background="new 0 0 100 100"
             xml:space="preserve"
             id="svg2306"
             width="100%"
             height="100%"><path
               d="M 50,5.649 C 26.609,5.649 7.649,24.609 7.649,48 7.649,71.389 26.609,90.35 50,90.35 73.389,90.35 92.35,71.389 92.35,48 92.35,24.609 73.389,5.649 50,5.649 Z M 50,81.88 C 31.288,81.88 16.119,66.711 16.119,48 16.119,29.288 31.288,14.119 50,14.119 68.712,14.119 83.88,29.288 83.88,48 83.88,66.711 68.712,81.88 50,81.88 Z"
               id="path2286" /><path
               d="M 50,22.589 C 35.966,22.589 24.589,33.966 24.589,48 24.589,62.033 35.966,73.41 50,73.41 64.033,73.41 75.41,62.033 75.41,48 75.41,33.966 64.033,22.589 50,22.589 Z m 0,45.739 C 38.773,68.328 29.671,59.226 29.671,48 29.671,36.773 38.774,27.671 50,27.671 c 11.228,0 20.328,9.103 20.328,20.329 0,11.227 -9.099,20.328 -20.328,20.328 z"
               id="path2288" /><circle
               cx="50"
               cy="48"
               r="9.5839996"
               id="circle2290" /><rect
               x="41.415001"
               y="68"
               transform="matrix(0.7071,0.7071,-0.7071,0.7071,69.293,-29.288)"
               width="57.171001"
               height="2"
               id="rect2292" /><rect
               x="79"
               y="78"
               width="12"
               height="2"
               id="rect2294" /><rect
               x="79"
               y="78"
               width="2"
               height="12"
               id="rect2296" /><rect
               x="82"
               y="82"
               width="2"
               height="8"
               id="rect2298" /><rect
               x="83"
               y="81"
               width="8"
               height="2"
               id="rect2300" /><rect
               x="85"
               y="85"
               width="2"
               height="5"
               id="rect2302" /><rect
               x="85"
               y="84"
               width="6"
               height="2"
               id="rect2304" /></svg>
        </svg>
        <defs
           id="defs2319">
          <filter
             id="colors7263881097"
             x="0"
             y="0"
             width="1"
             height="1">
            <feColorMatrix
               type="matrix"
               values="0 0 0 0 0.80078125  0 0 0 0 0.546875  0 0 0 0 0.1640625  0 0 0 1 0"
               class="icon-fecolormatrix"
               id="feColorMatrix2310" />
          </filter>
          <filter
             id="colorsf1165146909">
            <feColorMatrix
               type="matrix"
               values="0 0 0 0 0.99609375  0 0 0 0 0.99609375  0 0 0 0 0.99609375  0 0 0 1 0"
               class="icon-fecolormatrix"
               id="feColorMatrix2313" />
          </filter>
          <filter
             id="colorsb2299888873">
            <feColorMatrix
               type="matrix"
               values="0 0 0 0 0  0 0 0 0 0  0 0 0 0 0  0 0 0 1 0"
               class="icon-fecolormatrix"
               id="feColorMatrix2316" />
          </filter>
        </defs>
      </g>
    </g>
    <g
       transform="translate(67.000004,24.418999)"
       id="g2341">
      <g
         data-gra="path-name"
         fill-rule=""
         class="tp-name iconsvg-namesvg"
         opacity="1"
         id="g2331">
        <g
           id="g2329">
          <g
             id="g2327">
            <path
               d="M 13.85,-7.37 H 6.64 V 0 H 2.15 v -21.09 h 10.53 q 2.88,0 4.11,0.41 v 0 q 2.09,0.7 3.29,2.88 v 0 q 0.88,1.64 0.88,3.57 v 0 q 0,1.61 -0.58,3.05 -0.59,1.44 -1.63,2.36 v 0 q -0.95,0.82 -2.01,1.14 -1.06,0.31 -2.89,0.31 z m -7.21,-9.96 v 6.2 h 6.1 q 1.65,0 2.31,-0.51 v 0 q 0.98,-0.79 0.98,-2.75 v 0 q 0,-2.11 -1.49,-2.72 v 0 q -0.53,-0.22 -1.7,-0.22 v 0 z m 26.43,-3.89 v 0 q 3.16,0 5.57,1.08 v 0 q 2.81,1.3 3.95,4.33 v 0 q 0.88,2.37 0.88,5.57 v 0 q 0,3.22 -1.07,5.59 v 0 q -1.36,2.82 -4.17,3.95 v 0 q -2.09,0.83 -4.81,0.83 v 0 q -3.57,0 -6.2,-1.33 v 0 q -2.21,-1.11 -3.38,-3.48 -1.17,-2.37 -1.17,-5.75 v 0 q 0,-6.04 3,-8.6 v 0 q 2.53,-2.15 7.4,-2.19 z m 0.03,3.55 v 0 q -3.09,0 -4.42,2.02 v 0 q -1.08,1.58 -1.08,5.09 v 0 q 0,3.7 1.33,5.44 v 0 q 1.33,1.71 4.21,1.71 v 0 q 2.78,0 4.09,-1.74 1.31,-1.74 1.31,-5.38 v 0 q 0,-3.32 -1.07,-5.06 v 0 q -1.24,-2.05 -4.37,-2.08 z m 23.12,13.91 h 6.45 V 0 H 55.3 q -2.09,0 -3.19,-0.22 v 0 q -3.89,-0.76 -5.54,-4.33 v 0 Q 45.5,-6.96 45.5,-10.5 v 0 q 0,-4.23 1.64,-6.89 v 0 q 1.2,-1.93 3.21,-2.81 2.01,-0.89 5.17,-0.89 v 0 h 7.15 v 3.76 h -6.64 q -3.01,0 -4.4,1.62 v 0 q -1.17,1.32 -1.17,4.8 v 0 q 0,4.68 1.8,6.14 v 0 q 1.27,1.01 3.96,1.01 z m 27.82,0.72 v -18.74 h 2.97 v 18.59 h 0.79 q 0.41,0 0.7,-0.29 0.28,-0.28 0.28,-0.73 v 0 -18.65 h 3.23 v 19.29 q 0,0.72 -0.27,1.34 -0.27,0.62 -0.74,1.09 -0.48,0.48 -1.11,0.74 -0.63,0.27 -1.33,0.27 v 0 h -3.03 l 1.29,-2.91 z m -15.62,3.1 h -4.05 l 2.5,-9.04 h 4.05 z m -1.55,-10.53 -2.5,-7.08 h 1.84 l -1.84,-5.21 h 4.05 l 2.5,7.08 h -1.84 l 1.84,5.21 z m 4.55,-12.01 h 9.3 q 0.98,0 1.68,0.7 0.69,0.69 0.69,1.67 v 0 12.81 h -3.32 v -12.37 q 0,-0.28 -0.19,-0.49 -0.19,-0.2 -0.47,-0.2 v 0 H 74.74 V -7.3 h -3.32 z m 8.26,22.23 -2.09,-4.49 -2.02,4.58 h -3.45 l 3.57,-8.53 v -9.3 h 3.2 v 10.34 l -0.7,1.58 h 2.28 l 2.72,5.82 z m 20.83,-17.42 h -4.8 L 93.4,-22.8 h 4.8 z m -5.63,14.22 v -9.32 H 93.4 v -3.1 h 1.48 4.37 v 3.1 9.1 q 0,0.41 0.28,0.7 0.29,0.28 0.73,0.28 v 0 h 1.83 l -1.2,2.72 h -2.53 q -0.72,0 -1.36,-0.27 -0.63,-0.27 -1.1,-0.74 -0.48,-0.47 -0.75,-1.11 -0.27,-0.63 -0.27,-1.36 z m 25.17,-14.22 h -2.4 -1.3 l 4.08,17.7 h -4.3 l -4.11,-17.7 h -10.27 v -3.13 h 9.54 l -0.44,-2 h 4.3 l 0.48,2 h 1.26 l -0.44,-2 h 3.57 l 1.14,5.13 z m -8,5.21 h -2.53 v 8.54 l 2.53,-0.25 v 2.94 l -9.55,1.01 v -2.97 l 2.66,-0.29 v -8.98 h -2.66 v -3.13 h 9.55 z m 37.66,9.39 v 2.94 h -26.72 v -2.94 h 11.16 V -19.76 H 124.1 v -2.91 h 24.5 v 2.91 h -10.05 v 16.69 z m 28.2,-16.25 v 11.98 h 1.43 v 3.13 h -27.8 v -3.13 h 1.43 V -22.8 h 21.5 q 0.69,0 1.32,0.27 0.64,0.27 1.11,0.75 0.48,0.47 0.74,1.1 0.27,0.63 0.27,1.36 z m -4.36,4.52 v -1.39 h -16.22 v 1.39 z m 0,2.44 h -16.22 v 1.39 h 16.22 z m -1.01,-7.31 h -15.21 v 1.05 h 16.22 v -0.07 q 0,-0.41 -0.28,-0.69 -0.29,-0.29 -0.73,-0.29 z m -15.21,11.1 v 1.23 h 16.22 v -1.23 z m 14.01,5.41 h 4.74 l 3.26,3.19 h -4.75 z m -19.8,3.19 3.26,-3.19 h 4.74 l -3.25,3.19 z"
               transform="translate(-2.1500001,22.860001)"
               id="path2325" />
          </g>
          <!---->
          <!---->
          <!---->
          <!---->
          <!---->
          <!---->
          <!---->
        </g>
      </g>
      <g
         data-gra="path-slogan"
         fill-rule=""
         class="tp-slogan iconsvg-slogansvg"
         fill="#1d0a5b"
         transform="translate(23.135002,28.99)"
         opacity="1"
         id="g2339">
        <!---->
        <!---->
        <g
           id="g2337">
          <g
             id="g2335">
            <path
               d="m 1.97,-9.61 v 0 q 1.17,0.05 1.17,0.28 v 0 q 0,0.1 -0.09,0.28 v 0 q -0.14,0.19 -0.14,0.42 v 0 1.6 h 0.23 q 0.33,0 0.99,-0.1 v 0 0.94 Q 3.89,-6.23 3.14,-6.23 v 0 H 2.91 v 1.87 Q 3.05,-4.41 3.23,-4.5 v 0 Q 3.8,-4.69 4.27,-4.92 v 0 0.98 q -0.8,0.24 -1.36,0.52 v 0 3.19 Q 2.86,0.94 1.31,1.08 v 0 Q 1.27,0.61 0.94,0 v 0 q 0.65,0.09 0.98,-0.05 v 0 Q 2.06,-0.14 2.06,-0.8 v 0 -2.25 Q 1.69,-2.91 0.7,-2.39 v 0 L 0.38,-3.47 q 0.23,-0.09 0.7,-0.23 v 0 q 0.65,-0.19 0.98,-0.33 v 0 -2.2 H 1.73 q -0.56,0 -1.21,0.04 v 0 -0.94 q 0.84,0.1 1.21,0.1 v 0 h 0.33 v -1.41 q 0,-0.89 -0.09,-1.17 z m 4.5,3.33 v 0 l 0.84,0.61 Q 6.47,-4.55 5.48,-3.8 v 0 Q 5.2,-4.08 4.55,-4.31 v 0 Q 5.91,-5.39 6.47,-6.28 Z M 8.25,-5.67 9,-6.28 q 1.27,0.94 1.88,1.73 v 0 L 10.03,-3.8 Q 9.28,-4.88 8.25,-5.67 Z m -3.56,3.33 v -1.04 q 1.12,0.1 1.59,0.1 v 0 h 2.67 q 0.66,0 1.6,-0.1 v 0 0.99 q -0.24,0 -0.94,-0.05 v 0 q -0.47,0 -0.56,0 v 0 H 8.11 v 2.16 h 1.45 q 0.85,-0.05 1.83,-0.1 v 0 0.94 q -0.28,0 -1.12,-0.04 v 0 Q 9.7,0.47 9.56,0.47 v 0 H 5.91 q -0.85,0 -1.93,0.09 v 0 -0.94 q 1.08,0.1 1.93,0.1 v 0 H 7.17 V -2.44 H 6.23 q -0.51,0 -1.54,0.1 z M 6.94,-9.42 8.11,-9.66 Q 8.2,-9 8.58,-8.16 v 0 h 1.64 q 0.47,0 1.03,-0.09 v 0 q 0,0.05 0,0.09 v 0 q -0.09,0.43 -0.09,0.75 v 0 0.52 q 0,0.56 0.09,0.8 v 0 h -1.12 q 0.09,-0.24 0.09,-0.8 v 0 -0.47 H 5.44 v 0.42 q 0,0.42 0.09,0.8 v 0 H 4.5 q 0.09,-0.24 0.09,-0.8 v 0 -0.42 q 0,-0.56 -0.09,-0.89 v 0 q 0.23,0.09 0.94,0.09 v 0 H 7.5 Q 7.27,-8.86 6.94,-9.42 Z m 13.87,1.31 h -5.48 v 1.73 h 5.48 z m 0,2.53 h -5.48 v 1.92 h 5.48 z m 0,2.72 h -5.48 v 1.92 h 5.48 z m 1.22,-6.28 v 0 q -0.09,0.33 -0.09,1.64 v 0 6.98 q 0,0.9 0.09,1.5 v 0 h -1.31 q 0.09,-0.7 0.09,-1.03 v 0 h -5.48 q 0,0.75 0.09,1.03 v 0 H 14.11 Q 14.2,0.8 14.2,-0.8 v 0 -6.89 q 0.05,-0.7 -0.04,-1.45 v 0 q 0.75,0.14 1.73,0.09 v 0 h 4.17 q 1.32,0.05 1.97,-0.09 z m 4.17,-0.52 v 0 q 1.27,0.1 1.27,0.19 v 0 q 0,0.05 -0.05,0.19 v 0 Q 27.23,-9 27.23,-8.53 v 0 1.5 q 0.99,0 1.55,-0.1 v 0 0.94 q -0.37,0 -1.55,0 v 0 1.92 l 0.75,-0.37 q 0.52,0.61 1.04,1.59 v 0 l -0.89,0.47 q -0.24,-0.7 -0.9,-1.5 v 0 3.28 q 0,1.13 0.1,1.93 v 0 h -1.08 q 0.09,-1.04 0.09,-1.97 v 0 -3.75 q -0.42,1.59 -1.4,3.23 v 0 Q 24.7,-2.02 24.33,-2.39 v 0 q 1.26,-1.74 1.78,-3.8 v 0 q -1.03,0 -1.45,0.05 v 0 -0.94 q 1.07,0.05 1.68,0.05 v 0 -1.5 q 0,-0.61 -0.14,-1.13 z m 3.19,1.88 v -0.99 q 0.19,0 0.66,0 v 0 q 0.75,0.05 1.17,0.05 v 0 h 1.22 q 0.56,0 1.4,-0.05 v 0 q 0.43,0 0.61,0 v 0 0.99 q -0.65,-0.1 -1.92,-0.1 v 0 h -1.31 q -0.99,0 -1.83,0.1 z m 0.28,4.08 v 0 q 1.17,0.28 1.22,0.51 v 0 Q 30.84,-3.09 30.7,-3 v 0 q -0.28,0.14 -0.37,0.47 v 0 Q 29.53,-0.84 28.97,0 v 0 q -0.38,-0.23 -1.03,-0.33 v 0 q 1.26,-1.69 1.73,-3.37 z m 3.05,0.42 0.94,-0.42 q 0.98,1.22 1.97,2.9 v 0 l -1.08,0.57 Q 33.61,-2.2 32.72,-3.28 Z M 30.52,-6 v 0 h 2.62 q 1.13,0 2.11,-0.09 v 0 1.07 q -1.08,-0.09 -2.11,-0.09 v 0 H 32.3 v 4.97 q 0.33,0.89 -1.78,1.17 v 0 Q 30.42,0.42 30.05,0 v 0 q 1.59,0.14 1.36,-0.56 v 0 -4.55 h -0.89 q -0.8,0 -1.69,0.09 v 0 q 0.05,0 -0.05,0 v 0 -1.03 q 0.19,0 0.66,0 v 0 Q 30.05,-6 30.52,-6 Z m 6.7,4.59 v 0 l 0.94,-0.75 q 1.5,0.99 2.62,2.39 v 0 l -0.94,0.94 q -1.07,-1.45 -2.62,-2.58 z m 12.75,-8.2 v 0 q 1.17,0.05 1.17,0.28 v 0 q 0,0.1 -0.09,0.28 v 0 q -0.14,0.19 -0.14,0.42 v 0 1.6 h 0.23 q 0.33,0 0.99,-0.1 v 0 0.94 q -0.24,-0.04 -0.99,-0.04 v 0 h -0.23 v 1.87 q 0.14,-0.05 0.32,-0.14 v 0 q 0.57,-0.19 1.04,-0.42 v 0 0.98 q -0.8,0.24 -1.36,0.52 v 0 3.19 q -0.05,1.17 -1.6,1.31 v 0 Q 49.27,0.61 48.94,0 v 0 q 0.65,0.09 0.98,-0.05 v 0 q 0.14,-0.09 0.14,-0.75 v 0 -2.25 q -0.37,0.14 -1.36,0.66 v 0 l -0.32,-1.08 q 0.23,-0.09 0.7,-0.23 v 0 q 0.65,-0.19 0.98,-0.33 v 0 -2.2 h -0.33 q -0.56,0 -1.21,0.04 v 0 -0.94 q 0.84,0.1 1.21,0.1 v 0 h 0.33 v -1.41 q 0,-0.89 -0.09,-1.17 z m 4.5,3.33 v 0 l 0.84,0.61 q -0.84,1.12 -1.83,1.87 v 0 Q 53.2,-4.08 52.55,-4.31 v 0 q 1.36,-1.08 1.92,-1.97 z m 1.78,0.61 0.75,-0.61 q 1.27,0.94 1.88,1.73 v 0 l -0.85,0.75 q -0.75,-1.08 -1.78,-1.87 z m -3.56,3.33 v -1.04 q 1.12,0.1 1.59,0.1 v 0 h 2.67 q 0.66,0 1.6,-0.1 v 0 0.99 q -0.24,0 -0.94,-0.05 v 0 q -0.47,0 -0.56,0 v 0 h -0.94 v 2.16 h 1.45 q 0.85,-0.05 1.83,-0.1 v 0 0.94 q -0.28,0 -1.12,-0.04 v 0 Q 57.7,0.47 57.56,0.47 v 0 h -3.65 q -0.85,0 -1.93,0.09 v 0 -0.94 q 1.08,0.1 1.93,0.1 v 0 h 1.26 v -2.16 h -0.94 q -0.51,0 -1.54,0.1 z m 2.25,-7.08 1.17,-0.24 q 0.09,0.66 0.47,1.5 v 0 h 1.64 q 0.47,0 1.03,-0.09 v 0 q 0,0.05 0,0.09 v 0 q -0.09,0.43 -0.09,0.75 v 0 0.52 q 0,0.56 0.09,0.8 v 0 h -1.12 q 0.09,-0.24 0.09,-0.8 v 0 -0.47 h -4.78 v 0.42 q 0,0.42 0.09,0.8 v 0 H 52.5 q 0.09,-0.24 0.09,-0.8 v 0 -0.42 q 0,-0.56 -0.09,-0.89 v 0 q 0.23,0.09 0.94,0.09 v 0 h 2.06 q -0.23,-0.7 -0.56,-1.26 z M 68.3,-9.61 v 0 q 1.22,0 1.22,0.19 v 0 q 0,0.04 -0.05,0.19 v 0 q -0.14,0.28 -0.14,0.51 v 0 1.55 h 0.37 q 0.85,0 1.64,-0.1 v 0 0.94 q -0.18,0 -0.79,-0.05 v 0 q -0.66,0 -0.85,0 v 0 h -0.37 v 3.61 q 0,1.32 -0.05,1.5 v 0 q -0.33,0.66 -1.87,0.71 v 0 q -0.1,-0.71 -0.33,-1.13 v 0 q 1.03,0.14 1.26,-0.19 v 0 q 0.05,-0.04 0.05,-0.79 v 0 -3.71 h -2.58 q -0.84,0 -1.73,0.1 v 0 -0.99 q 0.94,0.1 1.73,0.1 v 0 h 2.58 v -1.6 q 0,-0.51 -0.09,-0.84 z m -7.22,1.13 0.94,-0.61 q 1.31,1.64 1.64,2.2 v 0 l -0.99,0.66 q -0.7,-1.32 -1.59,-2.25 z m 4.08,3.37 0.98,-0.33 q 0.56,1.03 0.99,2.21 v 0 l -1.04,0.42 q -0.42,-1.32 -0.93,-2.3 z m -4.5,0.8 v -1.03 q 1.4,0.04 2.72,0 v 0 q -0.05,0.18 -0.05,0.84 v 0 l -0.05,3.42 q 1.36,0.8 3.1,1.08 v 0 q 2.25,0.19 5.06,-0.09 v 0 q -0.33,0.47 -0.38,1.07 v 0 q -1.03,0.1 -2.76,0.05 v 0 Q 66.8,0.94 65.72,0.75 v 0 q -0.99,-0.19 -2.3,-0.84 v 0 q -0.51,-0.29 -0.61,-0.29 v 0 q -0.37,0.05 -1.08,1.13 v 0 q -0.04,0.14 -0.09,0.19 v 0 L 60.75,0.28 q 0.23,-0.23 0.66,-0.56 v 0 q 0.7,-0.7 0.98,-0.89 v 0 -3.28 q -1.22,0.04 -1.73,0.14 z m 15.89,-5.16 v 0 q 0.75,0.75 0.65,0.89 v 0 q -0.04,0.05 -0.18,0.05 v 0 q -0.24,0 -0.38,0.05 v 0 q -0.09,0 -0.33,0.04 v 0 q -0.47,0.1 -0.65,0.14 v 0 1.97 h 0.18 q 0.89,0 1.22,-0.05 v 0 0.9 Q 76.69,-5.53 75.8,-5.53 v 0 h -0.14 v 1.31 l 0.51,-0.33 q 0.47,0.57 0.99,1.36 v 0 l -0.85,0.42 q -0.23,-0.65 -0.65,-1.21 v 0 3.6 q 0,1.04 0.04,1.32 v 0 h -1.03 q 0.1,-0.52 0.1,-1.32 v 0 -3.51 q -0.57,1.36 -1.5,2.81 v 0 q -0.38,-0.56 -0.66,-0.94 v 0 q 0.98,-0.75 2.16,-3.51 v 0 h -0.61 q -0.94,0 -1.22,0.05 v 0 -0.9 q 0.33,0.05 1.22,0.05 v 0 h 0.61 v -1.78 q -1.13,0.28 -1.46,0.28 v 0 l -0.42,-0.8 q 1.78,-0.14 3.66,-0.84 z m 2.15,1.36 v 1.64 h 2.91 v -1.64 z m -1.36,4.36 v -1.03 q 0.8,0.09 1.74,0.09 v 0 h 2.01 q 0.61,0 1.74,-0.09 v 0 1.03 Q 82.08,-3.8 81.09,-3.84 v 0 h -0.56 v 1.31 h 0.52 q 0.61,0 1.64,-0.1 v 0 0.94 q -0.24,0 -1.08,-0.04 v 0 q -0.42,0 -0.52,0 v 0 h -0.56 v 1.5 h 0.85 q 0.14,0 0.75,-0.05 v 0 q 0.93,-0.05 1.21,-0.05 v 0 0.89 Q 82.59,0.52 81.38,0.47 v 0 H 78.7 q -1.07,0.05 -1.87,0.09 v 0 -0.89 q 0.8,0.05 1.87,0.1 v 0 h 0.89 v -1.5 h -0.51 q -1.22,0 -1.64,0.04 v 0 -0.94 q 0.75,0.1 1.59,0.1 v 0 h 0.56 v -1.31 h -0.51 q -0.99,0 -1.74,0.09 z m 0.33,-5.3 v 0 q 0.28,0.14 0.99,0.14 v 0 h 2.95 q 0.56,0 1.08,-0.14 v 0 q -0.1,0.33 -0.1,0.94 v 0 1.64 q 0,0.61 0.1,0.94 v 0 q -0.66,-0.14 -1.03,-0.1 v 0 h -3 q -0.61,0 -0.99,0.1 v 0 q 0.1,-0.42 0.1,-0.94 v 0 -1.69 q 0,-0.32 -0.1,-0.89 z m 7.55,7.64 v 0 l 0.94,-0.75 q 1.5,0.99 2.62,2.39 v 0 l -0.94,0.94 q -1.07,-1.45 -2.62,-2.58 z m 12.75,-8.2 v 0 q 1.17,0.05 1.17,0.28 v 0 q 0,0.1 -0.09,0.28 v 0 q -0.14,0.19 -0.14,0.42 v 0 1.6 h 0.23 q 0.33,0 0.99,-0.1 v 0 0.94 q -0.24,-0.04 -0.99,-0.04 v 0 h -0.23 v 1.87 q 0.14,-0.05 0.32,-0.14 v 0 q 0.57,-0.19 1.04,-0.42 v 0 0.98 q -0.8,0.24 -1.36,0.52 v 0 3.19 q -0.05,1.17 -1.6,1.31 v 0 Q 97.27,0.61 96.94,0 v 0 q 0.65,0.09 0.98,-0.05 v 0 q 0.14,-0.09 0.14,-0.75 v 0 -2.25 q -0.37,0.14 -1.36,0.66 v 0 l -0.32,-1.08 q 0.23,-0.09 0.7,-0.23 v 0 q 0.65,-0.19 0.98,-0.33 v 0 -2.2 h -0.33 q -0.56,0 -1.21,0.04 v 0 -0.94 q 0.84,0.1 1.21,0.1 v 0 h 0.33 v -1.41 q 0,-0.89 -0.09,-1.17 z m 4.5,3.33 v 0 l 0.84,0.61 q -0.84,1.12 -1.83,1.87 v 0 q -0.28,-0.28 -0.93,-0.51 v 0 q 1.36,-1.08 1.92,-1.97 z m 1.78,0.61 0.75,-0.61 q 1.27,0.94 1.88,1.73 v 0 l -0.85,0.75 q -0.75,-1.08 -1.78,-1.87 z m -3.56,3.33 v -1.04 q 1.12,0.1 1.59,0.1 v 0 h 2.67 q 0.66,0 1.6,-0.1 v 0 0.99 q -0.24,0 -0.94,-0.05 v 0 q -0.47,0 -0.56,0 v 0 h -0.94 v 2.16 h 1.45 q 0.85,-0.05 1.83,-0.1 v 0 0.94 q -0.28,0 -1.12,-0.04 v 0 Q 105.7,0.47 105.56,0.47 v 0 h -3.65 q -0.85,0 -1.93,0.09 v 0 -0.94 q 1.08,0.1 1.93,0.1 v 0 h 1.26 v -2.16 h -0.94 q -0.51,0 -1.54,0.1 z m 2.25,-7.08 1.17,-0.24 q 0.09,0.66 0.47,1.5 v 0 h 1.64 q 0.47,0 1.03,-0.09 v 0 q 0,0.05 0,0.09 v 0 q -0.09,0.43 -0.09,0.75 v 0 0.52 q 0,0.56 0.09,0.8 v 0 h -1.12 q 0.09,-0.24 0.09,-0.8 v 0 -0.47 h -4.78 v 0.42 q 0,0.42 0.09,0.8 v 0 h -1.03 q 0.09,-0.24 0.09,-0.8 v 0 -0.42 q 0,-0.56 -0.09,-0.89 v 0 q 0.23,0.09 0.94,0.09 v 0 h 2.06 q -0.23,-0.7 -0.56,-1.26 z m 12.37,-0.14 v 0 q 1.27,0.14 1.17,0.28 v 0 q 0,0.09 -0.04,0.19 v 0 q -0.14,0.23 -0.14,0.56 v 0 0.75 h 1.12 q 1.36,0 1.83,-0.05 v 0 1.03 q -0.47,-0.09 -1.87,-0.09 v 0 h -1.08 v 1.55 h 0.75 q 1.17,0 1.59,-0.05 v 0 1.03 q -0.7,-0.09 -1.55,-0.09 v 0 h -2.25 q -0.79,0 -1.64,0.09 v 0 -1.08 q 0.43,0.05 1.6,0.1 v 0 h 0.56 v -1.55 h -0.7 q -0.89,0 -1.69,0 v 0 -0.94 q 0.47,0.05 1.64,0.05 v 0 h 0.75 v -0.99 q 0,-0.32 -0.05,-0.79 z m -4.64,0.04 v 0 q 1.22,0.47 1.31,0.66 v 0 q 0,0.09 -0.14,0.19 v 0 q -0.28,0.19 -0.42,0.47 v 0 q -0.61,1.03 -1.26,2.01 v 0 q -0.14,0.24 -0.19,0.33 v 0 l 1.45,-0.05 q 0.56,-1.07 0.61,-1.4 v 0 q 1.22,0.61 1.13,0.7 v 0 q -0.05,0.05 -0.14,0.09 v 0 q -0.19,0.1 -0.33,0.33 v 0 q -1.31,1.88 -2.3,3.19 v 0 q 1.74,-0.19 2.49,-0.28 v 0 l -0.19,0.94 q -0.05,0 -0.14,0 v 0 q -2.58,0.18 -3.38,0.42 v 0 L 108.98,-3 q 0.57,0.14 2.02,-2.16 v 0 q -1.22,0.1 -2.02,0.28 v 0 l -0.23,-0.98 q 1.08,-0.37 1.92,-3.66 z m 6.8,8.77 v -1.83 h -2.95 v 1.83 z m -4.5,-0.56 v 0 l -0.14,0.93 Q 111,0 108.98,0.38 v 0 l -0.23,-1.18 q 2.06,-0.14 4.22,-0.51 z m 0.42,-2.25 v 0 q 0.8,0.14 1.17,0.09 v 0 h 2.86 q 0.52,0 1.13,-0.09 v 0 q 0,-0.14 -0.1,0.7 v 0 q 0,0.33 0,0.52 v 0 2.25 q -0.04,0.47 0.1,1.03 v 0 h -1.17 q 0.09,-0.42 0.09,-0.75 v 0 V 0 h -2.95 v 0.23 q 0,0.24 0.09,0.75 v 0 h -1.27 q 0.14,-0.65 0.14,-1.17 v 0 -2.01 q 0.05,-0.47 -0.09,-1.36 z m 12,-4.74 h -2.3 v 1.22 h 2.3 z m 3.47,0 h -2.48 v 1.22 h 2.48 z m 0,1.92 h -2.48 v 1.13 h 2.48 z m -3.47,0 h -2.3 v 1.13 h 2.3 z m 4.55,-2.85 v 0 q -0.14,0.6 -0.1,0.89 v 0 3.14 q 0,0.42 0.05,0.84 v 0 q -0.61,-0.09 -0.84,-0.05 v 0 h -2.63 v 0.89 h 3.14 q 0.42,0.05 1.6,-0.09 v 0 0.94 q -1.22,-0.1 -1.6,-0.1 v 0 h -2.15 q 1.22,1.69 3.89,2.02 v 0 q -0.66,0.61 -0.75,1.08 v 0 q -2.91,-0.94 -3.89,-3.1 v 0 h -0.24 v 2.91 q 0.05,0.56 0.14,0.94 v 0 h -1.22 q 0.1,-0.38 0.1,-0.89 v 0 -2.96 h -0.1 q -0.75,1.74 -3.89,3.15 v 0 Q 121.17,0 120.56,-0.42 v 0 q 2.25,-0.52 4.03,-2.35 v 0 h -2.39 q -0.32,-0.04 -1.36,0.1 v 0 -0.94 q 0.94,0.09 1.32,0.09 v 0 h 3.28 v -0.89 h -2.58 q -0.19,-0.04 -0.8,0.05 v 0 q 0.1,-1.03 0.1,-1.31 v 0 -2.58 q 0,-0.23 -0.1,-0.98 v 0 q 0.75,0.14 1.13,0.09 v 0 h 5.39 q 0.51,0 1.36,-0.09 z"
               transform="translate(-0.375,9.65625)"
               id="path2333" />
          </g>
        </g>
      </g>
    </g>
  </g>
  <defs
     v-gra="od"
     id="defs2345" />
</svg>
