<?xml version="1.0" standalone="no"?><!DOCTYPE svg PUBLIC "-//W3C//DTD SVG 1.1//EN" "http://www.w3.org/Graphics/SVG/1.1/DTD/svg11.dtd"><svg t="1719201214328" class="icon" viewBox="0 0 1024 1024" version="1.1" xmlns="http://www.w3.org/2000/svg" p-id="9266" xmlns:xlink="http://www.w3.org/1999/xlink" width="16" height="16"><path d="M508.994763 1023.883385A459.775728 459.775728 0 0 1 49.685497 564.651862a470.271116 470.271116 0 0 1 93.992028-278.399879 38.871807 38.871807 0 1 1 63.749763 44.469347A396.492427 396.492427 0 0 0 127.42911 564.651862a381.565653 381.565653 0 1 0 381.565653-381.565653 38.871807 38.871807 0 0 1-38.871806-38.871807 38.871807 38.871807 0 0 1 38.871806-38.871806 459.309266 459.309266 0 1 1 0 918.540789z" fill="#1E1F25" p-id="9267"></path><path d="M513.503893 260.985309L424.254225 171.813385a38.871807 38.871807 0 0 1 0-54.964735L513.503893 27.521239a38.871807 38.871807 0 0 1 54.964734 54.964735l-61.806172 61.728428 61.806172 61.806173a38.871807 38.871807 0 0 1-54.964734 54.964734z" fill="#1E1F25" p-id="9268"></path><path d="M664.481989 610.676081h-310.974452a38.871807 38.871807 0 0 1-38.871807-38.871807 38.871807 38.871807 0 0 1 38.871807-38.871806h310.974452a38.871807 38.871807 0 0 1 38.871807 38.871806 38.871807 38.871807 0 0 1-38.871807 38.871807z" fill="#1E1F25" p-id="9269"></path></svg>