<?xml version="1.0" standalone="no"?><!DOCTYPE svg PUBLIC "-//W3C//DTD SVG 1.1//EN" "http://www.w3.org/Graphics/SVG/1.1/DTD/svg11.dtd"><svg t="1718331494491" class="icon" viewBox="0 0 1024 1024" version="1.1" xmlns="http://www.w3.org/2000/svg" p-id="5874" xmlns:xlink="http://www.w3.org/1999/xlink" width="16" height="16"><path d="M800 928H224c-70.692 0-128-57.308-128-128V224c0-70.692 57.308-128 128-128h576c70.692 0 128 57.308 128 128v576c0 70.692-57.308 128-128 128z m64-704c0-35.346-28.654-64-64-64H224c-35.346 0-64 28.654-64 64v576c0 35.346 28.654 64 64 64h576c35.346 0 64-28.654 64-64V224z" p-id="5875"></path></svg>